<svg height="512" viewBox="0 0 64 64" width="512" xmlns="http://www.w3.org/2000/svg" xmlns:xlink="http://www.w3.org/1999/xlink"><linearGradient id="linear-gradient" gradientUnits="userSpaceOnUse" x1=".333" x2="64.709" y1="63.667" y2="-.709"><stop offset="0" stop-color="#003f8a"/><stop offset=".518" stop-color="#00d7df"/><stop offset="1" stop-color="#006df0"/></linearGradient><linearGradient id="linear-gradient-2" x1="-16.204" x2="48.171" xlink:href="#linear-gradient" y1="47.129" y2="-17.247"/><linearGradient id="linear-gradient-3" x1="-15.358" x2="49.018" xlink:href="#linear-gradient" y1="47.976" y2="-16.4"/><path d="m32 1a31 31 0 1 0 31 31 31.035 31.035 0 0 0 -31-31zm0 2a29.03 29.03 0 0 1 28.975 28h-11.975c-.018 0-.033.009-.05.01a16.978 16.978 0 0 0 -33.9 0c-.017 0-.032-.01-.05-.01h-11.975a29.03 29.03 0 0 1 28.975-28zm15 29a15 15 0 1 1 -15-15 15.017 15.017 0 0 1 15 15zm-15 29a29.03 29.03 0 0 1 -28.975-28h11.975c.018 0 .033-.009.05-.01a16.978 16.978 0 0 0 33.9 0c.017 0 .032.01.05.01h11.975a29.03 29.03 0 0 1 -28.975 28z" fill="url(#linear-gradient)"/><path d="m6.726 25.811a1 1 0 0 0 1.236-.687 24.788 24.788 0 0 1 .961-2.739 1 1 0 0 0 -1.846-.771 27.076 27.076 0 0 0 -1.039 2.961 1 1 0 0 0 .688 1.236z" fill="url(#linear-gradient-2)"/><path d="m9.56 18.842a1 1 0 0 0 1.381-.3 24.927 24.927 0 0 1 21.059-11.542 1 1 0 0 0 0-2 26.921 26.921 0 0 0 -22.742 12.46 1 1 0 0 0 .302 1.382z" fill="url(#linear-gradient-3)"/><g fill="url(#linear-gradient)"><path d="m32 21a11 11 0 1 0 11 11 11.013 11.013 0 0 0 -11-11zm0 20a9 9 0 1 1 9-9 9.01 9.01 0 0 1 -9 9z"/><path d="m32 28a4 4 0 1 0 4 4 4 4 0 0 0 -4-4zm0 6a2 2 0 1 1 2-2 2 2 0 0 1 -2 2z"/></g></svg>